<?xml version="1.0" standalone="no"?>
<!DOCTYPE svg PUBLIC "-//W3C//DTD SVG 20010904//EN"
 "http://www.w3.org/TR/2001/REC-SVG-20010904/DTD/svg10.dtd">
<svg version="1.0" xmlns="http://www.w3.org/2000/svg"
 width="1080.000000pt" height="1080.000000pt" viewBox="0 0 1080.000000 1080.000000"
 preserveAspectRatio="xMidYMid meet">
<metadata>
Created by potrace 1.14, written by Peter Selinger 2001-2017
</metadata>
<g transform="translate(0.000000,1080.000000) scale(0.100000,-0.100000)"
fill="#000000" stroke="none">
<path d="M5209 8336 c-2 -2 -35 -7 -74 -10 -38 -3 -81 -8 -95 -10 -14 -3 -43
-7 -65 -10 -22 -3 -51 -8 -65 -11 -14 -3 -38 -8 -55 -10 -16 -3 -38 -8 -47
-11 -9 -3 -25 -6 -35 -8 -66 -13 -304 -86 -358 -111 -16 -7 -42 -18 -57 -24
-56 -22 -83 -36 -90 -46 -4 -5 -8 -7 -8 -2 0 9 -172 -80 -240 -124 -25 -16
-56 -34 -70 -41 -14 -7 -27 -15 -30 -18 -3 -4 -27 -22 -55 -40 -129 -87 -328
-257 -414 -354 -14 -16 -38 -42 -53 -57 -14 -15 -53 -61 -85 -101 -32 -40 -61
-74 -65 -76 -5 -2 -8 -10 -8 -18 0 -8 -7 -17 -15 -20 -8 -4 -15 -9 -15 -14 0
-5 -77 -127 -118 -186 -20 -29 -144 -272 -141 -276 1 -2 -8 -21 -20 -43 -11
-22 -21 -47 -21 -55 0 -9 -4 -20 -9 -26 -7 -7 -41 -98 -46 -124 -1 -3 -13 -43
-28 -90 -31 -99 -64 -246 -73 -322 -4 -29 -8 -56 -10 -59 -9 -16 -19 -197 -19
-364 0 -174 6 -289 20 -355 3 -14 8 -45 11 -70 21 -164 128 -520 193 -645 8
-16 15 -32 16 -35 1 -11 97 -196 108 -209 7 -8 19 -28 27 -45 14 -29 68 -115
80 -126 3 -3 21 -27 40 -55 19 -27 38 -51 42 -53 4 -2 8 -8 8 -13 0 -6 11 -21
25 -35 14 -14 25 -29 25 -33 0 -13 287 -301 355 -358 126 -103 173 -134 335
-217 216 -110 470 -195 720 -240 193 -35 304 -44 520 -40 197 3 250 7 350 24
30 5 72 12 93 16 294 45 757 230 984 392 17 12 36 22 41 22 6 0 12 3 14 8 2 4
56 47 121 96 65 49 174 144 242 212 104 103 156 163 298 344 39 50 149 232
202 335 73 143 92 188 138 320 52 149 57 166 92 310 15 59 46 264 53 341 4 49
7 166 6 259 -1 207 -8 280 -50 495 -24 125 -78 314 -128 444 -67 176 -205 429
-318 579 -32 43 -58 80 -58 83 0 2 -8 12 -17 22 -10 10 -36 40 -58 68 -104
127 -315 321 -477 437 -99 71 -384 209 -478 233 -8 2 -42 13 -75 24 -55 19
-191 56 -240 66 -11 2 -31 6 -45 9 -67 13 -188 33 -260 42 -46 6 -466 14 -471
9z"/>
<path d="M2150 2715 l0 -45 93 0 93 0 -1 -201 c0 -110 2 -205 6 -210 3 -6 32
-9 65 -7 l59 3 -1 208 0 207 93 0 93 0 0 45 0 45 -250 0 -250 0 0 -45z"/>
<path d="M2780 2733 c-6 -16 -15 -37 -21 -47 -6 -11 -15 -31 -19 -45 -5 -14
-42 -108 -83 -208 l-76 -183 69 0 68 0 18 50 18 50 117 0 117 0 18 -50 18 -50
151 0 150 0 64 80 c36 44 68 80 71 80 4 0 37 -36 74 -80 l67 -80 79 0 c44 0
80 2 80 4 0 3 -18 26 -41 53 -23 26 -48 57 -58 68 -9 11 -37 45 -63 76 -27 31
-48 60 -48 64 0 4 35 50 78 102 42 52 85 105 95 119 l19 24 -80 0 -80 0 -53
-67 c-29 -38 -56 -72 -59 -76 -4 -4 -28 18 -54 50 -26 32 -54 66 -61 76 -12
14 -31 17 -102 17 -71 0 -84 -2 -72 -12 9 -7 38 -40 65 -73 67 -81 79 -95 108
-129 28 -33 26 -39 -29 -101 -19 -22 -61 -72 -93 -112 -31 -40 -61 -72 -65
-73 -6 0 -58 100 -62 120 0 3 -13 31 -28 64 -15 32 -27 60 -27 62 0 3 -15 37
-34 77 -19 40 -44 96 -56 125 l-22 52 -74 0 c-72 0 -75 -1 -84 -27z m120 -183
c17 -41 35 -83 40 -92 9 -17 3 -18 -70 -18 -44 0 -80 2 -80 4 0 2 13 37 29 77
16 41 32 83 35 93 8 25 10 23 46 -64z"/>
<path d="M3830 2505 l0 -256 63 3 62 3 2 253 2 252 -65 0 -64 0 0 -255z"/>
<path d="M4367 2753 c-3 -5 -24 -55 -47 -113 -23 -58 -45 -114 -50 -125 -5
-11 -31 -75 -59 -142 l-49 -123 68 0 69 0 18 50 18 50 115 0 116 0 19 -50 19
-50 68 0 c37 0 68 3 68 7 0 3 -11 29 -24 57 -13 28 -31 67 -39 86 -8 19 -28
62 -43 95 -15 33 -37 83 -49 110 -12 28 -32 74 -45 103 l-23 52 -73 0 c-40 0
-75 -3 -77 -7z m129 -238 c15 -33 28 -63 31 -67 2 -5 -32 -8 -76 -8 l-80 0 18
53 c10 28 27 72 37 96 l18 44 13 -29 c7 -16 24 -56 39 -89z"/>
<path d="M4703 2713 c31 -64 63 -130 142 -298 83 -179 78 -169 109 -173 24 -3
29 3 67 85 47 100 77 166 109 238 18 41 73 159 87 188 2 4 -27 7 -65 7 l-69 0
-58 -132 c-32 -73 -61 -139 -65 -146 -7 -15 -8 -14 -75 133 -75 163 -58 145
-136 145 l-69 0 23 -47z"/>
<path d="M5279 2738 c0 -31 0 -437 0 -465 l1 -23 188 0 188 0 0 43 -1 42 -125
5 -124 5 0 60 0 60 117 3 117 3 0 44 0 45 -117 0 -118 0 1 45 c1 25 2 50 3 55
1 6 48 10 121 10 l120 0 0 45 0 45 -185 0 -185 0 -1 -22z"/>
<path d="M5755 2505 l0 -256 65 3 65 3 0 158 c0 86 2 157 5 157 3 -1 22 -23
43 -49 21 -27 50 -61 65 -77 15 -16 54 -60 87 -99 33 -38 65 -75 72 -82 6 -7
35 -13 65 -13 l53 0 -1 247 c-1 137 -2 251 -3 256 0 4 -28 7 -61 7 l-60 0 -1
-32 c0 -18 0 -89 0 -158 l1 -125 -22 27 c-13 15 -75 85 -138 157 l-114 131
-61 0 -60 0 0 -255z"/>
<path d="M6350 2715 l0 -45 93 0 93 0 -1 -200 c0 -111 2 -205 6 -211 3 -6 32
-9 65 -7 l59 3 0 208 0 207 92 0 93 0 0 45 0 45 -250 0 -250 0 0 -45z"/>
<path d="M6924 2583 c2 -157 4 -184 23 -224 37 -83 113 -118 244 -114 93 2
144 20 184 62 51 54 57 84 59 273 l1 175 -65 0 -65 0 0 -160 c-1 -168 -5 -188
-49 -222 -31 -25 -106 -29 -145 -8 -54 27 -61 56 -61 235 l0 160 -64 0 -64 0
2 -177z"/>
<path d="M7549 2743 c-1 -26 -1 -454 0 -475 1 -15 11 -18 64 -18 l63 0 -2 105
-1 105 33 0 c42 0 70 -33 114 -134 l34 -76 68 0 c37 0 68 2 68 6 0 20 -87 194
-111 219 -18 20 -18 21 16 48 40 32 56 77 42 127 -22 86 -72 107 -249 109
-127 2 -138 0 -139 -16z m244 -91 c24 -21 22 -67 -5 -86 -12 -9 -43 -16 -68
-16 l-46 0 0 61 0 60 50 -2 c28 -1 59 -9 69 -17z"/>
<path d="M8207 2753 c-3 -5 -24 -55 -47 -113 -23 -58 -45 -114 -50 -125 -5
-11 -31 -75 -59 -142 l-49 -123 68 0 69 0 18 50 18 50 115 0 116 0 19 -50 19
-50 68 0 c37 0 68 3 68 7 0 3 -11 29 -24 57 -29 63 -57 125 -108 241 -22 50
-51 116 -66 148 l-26 57 -72 0 c-40 0 -75 -3 -77 -7z m129 -238 c15 -33 28
-63 31 -67 2 -5 -32 -8 -76 -8 l-80 0 18 53 c10 28 27 72 37 96 l18 44 13 -29
c7 -16 24 -56 39 -89z"/>
<path d="M5941 2004 c-6 -15 -9 -29 -7 -32 7 -7 35 17 47 40 8 14 6 18 -9 18
-11 0 -24 -12 -31 -26z"/>
<path d="M4582 1805 c0 -136 1 -145 19 -145 14 0 19 7 20 28 1 33 1 244 0 255
-1 4 -9 7 -19 7 -18 0 -19 -11 -20 -145z"/>
<path d="M4748 1930 c-46 -28 -71 -68 -73 -118 -5 -87 50 -144 142 -148 30 -1
67 2 83 7 24 9 29 17 32 53 5 73 2 77 -49 74 -35 -2 -47 -7 -49 -20 -2 -14 5
-18 27 -18 24 0 29 -4 29 -25 0 -20 -6 -25 -35 -31 -95 -18 -166 57 -131 140
25 59 97 81 169 51 36 -15 37 -14 37 5 0 44 -125 65 -182 30z"/>
<path d="M4987 1943 c-2 -5 -3 -54 -1 -109 2 -117 15 -146 71 -165 84 -27 172
20 174 94 1 55 1 141 0 165 -1 15 -7 22 -20 22 -18 0 -20 -10 -23 -110 -3 -95
-6 -111 -23 -124 -42 -32 -120 -13 -132 31 -4 15 -7 67 -7 116 0 76 -2 87 -17
87 -10 0 -20 -3 -22 -7z"/>
<path d="M5356 1908 c-10 -24 -24 -56 -32 -73 -7 -16 -19 -46 -27 -65 -8 -19
-22 -52 -31 -72 -16 -37 -16 -38 5 -38 14 0 25 11 37 40 l17 40 62 0 63 0 20
-40 21 -41 147 3 c123 3 147 5 147 18 0 12 -18 16 -87 18 -49 1 -88 6 -88 9 0
3 17 29 38 57 21 28 60 80 86 116 l47 65 -112 3 c-124 3 -141 0 -133 -23 5
-12 23 -15 85 -15 43 0 79 -3 79 -6 0 -3 -8 -16 -17 -29 -10 -12 -25 -33 -33
-45 -8 -12 -22 -30 -30 -40 -8 -11 -31 -41 -50 -69 -19 -28 -37 -50 -40 -51
-3 0 -32 62 -66 137 -34 78 -67 139 -75 141 -9 2 -22 -14 -33 -40z m54 -74
c11 -25 20 -48 20 -50 0 -2 -20 -4 -45 -4 -40 0 -44 2 -36 18 5 9 15 32 21 50
7 17 14 32 17 32 2 0 13 -21 23 -46z"/>
<path d="M5815 1843 c1 -60 6 -118 13 -129 31 -58 151 -69 202 -19 23 24 25
33 28 140 4 111 3 115 -17 115 -20 0 -21 -5 -21 -95 0 -52 0 -98 -1 -102 -1
-20 -41 -49 -69 -51 -37 -3 -86 21 -92 45 -2 10 -4 60 -3 110 0 88 -1 93 -21
93 -20 0 -21 -4 -19 -107z"/>
</g>
</svg>
